<svg id="Layer_1" data-name="Layer 1" xmlns="http://www.w3.org/2000/svg" viewBox="0 0 216 216">
  <defs>
    <style>
      .cls-1 {
        fill: none;
      }

      .cls-2 {
        fill: #1e0ff5;
      }

      .cls-3 {
        fill: #fff;
      }
    </style>
  </defs>
  <title>JN Logo Merged 3</title>
  <g>
    <polygon class="cls-1" points="72.55 159.97 71.95 159.62 71.95 159.62 72.55 159.97"/>
    <polygon class="cls-2" points="162.1 39.97 162.1 89.83 160.85 89.83 160.59 90.07 160.38 89.83 160.37 89.83 160.37 89.83 131.3 57.62 102.69 74.27 102.58 210.54 130.61 194.61 130.61 146.67 131.47 146.67 132.09 146.06 161.85 176.33 161.23 176.94 191 159.75 191 23.58 162.1 39.97"/>
    <polygon class="cls-2" points="160.37 87.25 160.37 39.97 131.47 23.28 131.47 56.52 132.12 55.94 160.37 87.25"/>
    <polygon class="cls-2" points="130.61 56.02 100.4 38.57 72.07 22.22 43.28 38.97 101.83 72.77 130.61 56.02"/>
    <polygon class="cls-2" points="71.09 124.75 42.46 108.22 13.4 124.83 71.09 158.12 71.09 124.75"/>
    <polygon class="cls-2" points="190.78 21.72 174.79 12.65 161.23 4.97 132.34 21.78 161.24 38.47 190.78 21.72"/>
    <polygon class="cls-2" points="132.34 160.25 158.1 174.97 132.34 148.78 132.34 160.25"/>
    <polygon class="cls-2" points="42.19 40.33 42.19 73.7 42.62 72.95 72.38 90.13 71.95 90.88 72.81 90.88 72.81 159.62 71.95 159.62 72.55 159.97 71.95 159.62 71.52 160.37 12.42 126.25 12.42 159.48 100.85 210.53 100.97 74.27 42.19 40.33"/>
    <polygon class="cls-3" points="71.95 159.62 71.95 159.62 72.81 159.62 72.81 90.88 71.95 90.88 72.38 90.13 42.62 72.95 42.19 73.7 41.75 74.45 71.09 91.38 71.09 124.75 71.09 158.12 13.4 124.83 12.85 124.51 11.99 126 12.42 126.25 71.52 160.37 71.95 159.62"/>
    <polygon class="cls-3" points="131.3 57.62 160.37 89.83 160.37 89.83 160.38 89.83 160.59 90.07 160.85 89.83 162.1 89.83 162.1 39.97 191 23.58 192.08 22.97 191.23 21.46 190.78 21.72 161.24 38.47 132.34 21.78 131.91 21.54 131.04 23.03 131.47 23.28 160.37 39.97 160.37 87.25 132.12 55.94 131.47 56.52 131.04 55.77 130.61 56.02 101.83 72.77 43.28 38.97 42.62 38.59 41.75 40.08 42.19 40.33 100.97 74.27 100.85 210.53 100.85 211.03 102.58 211.03 102.58 210.54 102.69 74.27 131.3 57.62"/>
    <polygon class="cls-3" points="132.09 146.06 131.47 146.67 130.61 146.67 130.61 194.61 130.61 195.3 132.34 195.3 132.34 160.25 132.34 148.78 158.1 174.97 160.62 177.54 161.23 176.94 161.85 176.33 132.09 146.06"/>
  </g>
</svg>
