<?xml version="1.0" encoding="utf-8"?>
<!-- Generator: Adobe Illustrator 23.0.4, SVG Export Plug-In . SVG Version: 6.00 Build 0)  -->
<svg version="1.1" id="Layer_1" xmlns="http://www.w3.org/2000/svg" xmlns:xlink="http://www.w3.org/1999/xlink" x="0px" y="0px"
	 viewBox="0 0 216 216" style="enable-background:new 0 0 216 216;" xml:space="preserve">
<style type="text/css">
	.Arched_x0020_Green{fill:url(#SVGID_1_);stroke:#FFFFFF;stroke-width:0.25;stroke-miterlimit:1;}
	.st0{fill:#EF7B22;}
	.st1{fill:none;}
	.st2{fill:none;stroke:#1E0FF5;stroke-width:1.75;stroke-miterlimit:10;}
	.st3{fill:#FFFFFF;}
	.st4{fill:#1E0FF5;}
	.st5{fill:none;stroke:#1E0FF5;stroke-miterlimit:10;}
	.st6{fill:none;stroke:#1E0FF5;stroke-width:2;stroke-miterlimit:10;}
</style>
<linearGradient id="SVGID_1_" gradientUnits="userSpaceOnUse" x1="-198" y1="504" x2="-197.2929" y2="503.2929">
	<stop  offset="0" style="stop-color:#1EAB4B"/>
	<stop  offset="0.9831" style="stop-color:#19361A"/>
</linearGradient>
<polygon class="st1" points="72.55,159.97 71.95,159.62 71.95,159.62 "/>
<polyline class="st2" points="131.47,55.23 160.37,87.25 160.37,39.97 131.47,23.28 131.47,56.52 "/>
<polygon class="st2" points="131.47,55.23 100.4,38.57 72.07,22.22 43.29,38.97 101.83,72.77 "/>
<line class="st2" x1="71.03" y1="124.9" x2="41.96" y2="107.96"/>
<polyline class="st2" points="160.38,39.97 191.22,22.27 174.93,13.15 161.37,5.47 130.99,22.55 "/>
<line class="st6" x1="131.59" y1="149.69" x2="154.77" y2="178.18"/>
<polyline class="st6" points="42.29,38.97 42.29,74.48 70.73,90.9 71.09,158.96 "/>
<polyline class="st2" points="101.83,210.79 12.42,159.48 12.42,124.94 "/>
<polyline class="st2" points="100.95,210.79 131.47,192.7 131.47,148.78 "/>
<polyline class="st2" points="192.77,158.18 155.03,178.49 131.84,165.1 "/>
<line class="st2" x1="192.08" y1="22.22" x2="192.31" y2="158.96"/>
<line class="st2" x1="101.83" y1="73.02" x2="101.83" y2="210.61"/>
<line class="st2" x1="11.96" y1="125.54" x2="42.64" y2="107.57"/>
<line class="st2" x1="12.57" y1="125.19" x2="71.65" y2="159.62"/>
</svg>
